# xmcd
#
# Track frame offsets:
#	182
#	16278
#	30040
#	44659
#	58632
#	73081
#	88060
#	100268
#	111214
#	122845
#	136213
#	149046
#	161055
#	173180
#	186248
#	198789
#	210712
#	224698
#	237937
#	250739
#	262942
#	274215
#
# Disc length: 3814 seconds
# Revision: 0
# Processed by: cddbd v1.5.2PL0 Copyright (c) Steve Scherf et al.
# Submitted via: dBpowerAMP V12.0
#
DISCID=4c0ee416
DTITLE=Joe Liggins - 1944-1946
DYEAR=2002
DGENRE=Blues
TTITLE0=The Honeydripper, Pt. 1
TTITLE1=The Honeydripper, Pt. 2
TTITLE2=Blue Moods
TTITLE3=The Honeydripper, Pt. 1
TTITLE4=The Honeydripper, Pt. 2
TTITLE5=I've Got a Right to Cry
TTITLE6=Doodle-Do-Da-Deet
TTITLE7=Sugar Lump
TTITLE8=You Ain't Goin' to Heaven No How
TTITLE9=Caravan
TTITLE10=Miss Betty's Blues
TTITLE11=I Know My Love Is True
TTITLE12=Lover's Lament
TTITLE13=Harlemesque
TTITLE14=Dripper's Boogie, Pt. 1
TTITLE15=Dripper's Boogie, Pt. 2
TTITLE16=Tanya
TTITLE17=Breaking My Heart
TTITLE18=Last Night Blues
TTITLE19=T.W.A.
TTITLE20=Someday Sweetheart
TTITLE21=Yvette
EXTD=
EXTT0=
EXTT1=
EXTT2=
EXTT3=
EXTT4=
EXTT5=
EXTT6=
EXTT7=
EXTT8=
EXTT9=
EXTT10=
EXTT11=
EXTT12=
EXTT13=
EXTT14=
EXTT15=
EXTT16=
EXTT17=
EXTT18=
EXTT19=
EXTT20=
EXTT21=
PLAYORDER=
